<?xml version="1.0" encoding="utf-8"?>
<!-- Generator: Adobe Illustrator 21.0.0, SVG Export Plug-In . SVG Version: 6.00 Build 0)  -->
<svg version="1.1" id="Livello_1" xmlns="http://www.w3.org/2000/svg" xmlns:xlink="http://www.w3.org/1999/xlink" x="0px" y="0px"
	 viewBox="0 0 300 300" style="enable-background:new 0 0 300 300;" xml:space="preserve">
<style type="text/css">
	.st0{fill:none;stroke:#000000;stroke-width:0.75;stroke-miterlimit:10;}
	.st1{fill:#F78181;stroke:#000000;stroke-width:0.75;stroke-miterlimit:10;}
</style>
<title>icon-2</title>
<g>
	<g>
		<path class="st0" d="M149.6,86c0.1,0,0.3,0,0.4,0c0.1,0,0.3,0,0.4,0H149.6z"/>
		<g>
			<path class="st1" d="M255.5,124.1C227,119,213.9,107,205.4,98.5c-8.5-8.4-23.5-23.9-55.3-24c-31.8,0.2-46.8,15.6-55.3,24
				c-8.5,8.5-21.6,20.5-50.1,25.6c-7.1,1.3-9.4,2.5-3.4,6.4c6,3.9,4.4,8.3,4.6,10.3c0.2,2.1,3.9,42.3,6.5,52.4
				c2.9,11.2,9.2,23.6,31.9,25.5c22.7,1.8,20.8,1.6,35.3,2.1c3,3.4,4.1,4.4,8.4,4.6c4.3,0.2,5.7,0,9.9-3.8c6.9,0.2,11.7,0,11.7,0
				h1.2c0,0,4.8,0.1,11.7,0c4.2,3.8,5.6,4,9.9,3.8c4.3-0.2,5.4-1.3,8.4-4.6c14.5-0.5,12.6-0.1,35.3-1.9c22.7-1.8,29-14.7,32.1-25.5
				c2.9-10,6.1-50.5,6.3-52.5c0.2-2.1-1.4-6.4,4.6-10.3C264.8,126.6,262.5,125.4,255.5,124.1z"/>
		</g>
	</g>
	<path class="st0" d="M165.6,216v0.7c0,0,0.8,0.6,1.8,0.5s1.7-0.5,1.7-0.5V216H165.6z"/>
	<path class="st0" d="M133.6,216v0.7c0,0-0.8,0.6-1.8,0.5s-1.7-0.5-1.7-0.5V216H133.6z"/>
</g>
</svg>
