<?xml version="1.0" encoding="utf-8"?>
<!-- Generator: Adobe Illustrator 21.0.0, SVG Export Plug-In . SVG Version: 6.00 Build 0)  -->
<svg version="1.1" id="Livello_1" xmlns="http://www.w3.org/2000/svg" xmlns:xlink="http://www.w3.org/1999/xlink" x="0px" y="0px"
	 viewBox="0 0 300 300" style="enable-background:new 0 0 300 300;" xml:space="preserve">
<style type="text/css">
	.st0{fill:#F08082;stroke:#000000;stroke-width:0.75;stroke-miterlimit:10;}
	.st1{fill:#F78181;stroke:#000000;stroke-width:0.75;stroke-miterlimit:10;}
	.st2{fill:none;stroke:#000000;stroke-width:0.75;stroke-miterlimit:10;}
	.st3{fill:none;stroke:#000000;stroke-width:0.75;stroke-linecap:round;stroke-miterlimit:10;}
</style>
<title>icon-2</title>
<g>
	<g>
		<path class="st0" d="M149.6,36.2c0.1,0,0.2,0,0.4,0c0.1,0,0.2,0,0.4,0H149.6z"/>
		<path class="st1" d="M230.8,74.1C209,70.2,198.9,61,192.4,54.5c-6.5-6.5-18-18.3-42.4-18.4c-24.4,0.1-35.9,11.9-42.4,18.4
			S91,70.2,69.2,74.1c-5.4,1-7.2,1.9-2.6,4.9s3.3,6.3,3.5,7.9c0.1,1.6,3,32.4,5,40.1c2.2,8.6,7,18.1,24.4,19.5s15.9,1.2,27,1.6
			c2.3,2.6,3.1,3.4,6.4,3.6c3.3,0.1,4.3,0,7.6-2.9c5.3,0.1,9,0,9,0h0.9c0,0,3.7,0.1,9,0c3.2,2.9,4.3,3.1,7.6,2.9s4.1-1,6.4-3.6
			c11.1-0.4,9.6-0.1,27-1.5s22.2-11.2,24.6-19.5c2.2-7.7,4.7-38.6,4.9-40.2c0.1-1.6-1.1-4.9,3.5-7.9
			C237.9,76.1,236.2,75.1,230.8,74.1z M213.6,130.7c-4.9,6.8-25,7.8-43.4,7.8c-4,0-7.8,0-11.5-0.1c-3.1,0-6-0.1-8.5-0.1
			c-2.6,0-5.4,0-8.5,0.1c-20.6,0.2-48.9,0.6-54.9-7.7c-0.2-0.2-0.1-0.5,0.1-0.7s0.5-0.1,0.7,0.1c5.7,7.9,34.8,7.5,54.1,7.3
			c3.1,0,6-0.1,8.5-0.1c2.6,0,5.5,0,8.5,0.1c19.3,0.2,48.4,0.6,54.1-7.3c0.2-0.2,0.5-0.3,0.7-0.1
			C213.7,130.1,213.8,130.4,213.6,130.7z"/>
	</g>
	<path class="st2" d="M90.5,264.2c0.8,0,1.4-0.7,1.4-1.5l0,0c0-0.8-0.7-1.5-1.5-1.5h-4.8c-0.8,0-1.4,0.7-1.4,1.5l0,0
		c0,0.8,0.7,1.5,1.5,1.5H90.5z"/>
	<path class="st2" d="M122.3,158.9l4.9,1.5c-7.1,36.9-35.9,99-35.9,99h-5C93.7,221.1,122.3,158.9,122.3,158.9z"/>
	<path class="st2" d="M206.8,264.2c-0.8,0-1.4-0.7-1.4-1.5l0,0c0-0.8,0.7-1.5,1.5-1.5h4.8c0.8,0,1.4,0.7,1.4,1.5l0,0
		c0,0.8-0.7,1.5-1.5,1.5H206.8z"/>
	<path class="st2" d="M177.4,158.9l-4.9,1.5c7.1,36.9,33.5,99,33.5,99h5C203.6,221.1,177.4,158.9,177.4,158.9z"/>
	<path class="st2" d="M164.1,153.6v0.6c0,0,0.7,0.5,1.7,0.4c0.9-0.1,1.6-0.5,1.6-0.5v-0.6L164.1,153.6z"/>
	<path class="st2" d="M135.2,153.6v0.6c0,0-0.7,0.5-1.7,0.4c-0.9-0.1-1.6-0.5-1.6-0.5v-0.6L135.2,153.6z"/>
	<path class="st2" d="M135.8,152.3c0,0-4.1,0-6.5-0.1l-3.1-3.3l-2.9,8.6l3.7,0.9c0,0,2.1-5.4,3.5-5.4c1.2,0,5.4-0.1,5.4-0.1
		L135.8,152.3z"/>
	<path class="st2" d="M175.9,157.4l-1.9-8.6l-3.2,3.4c-2.2,0-7.3,0.1-7.3,0.1v0.8c0,0,4.2,0.2,5.4,0.1c1.3,0,3.5,5.4,3.5,5.4
		l3.7-0.9C176,157.6,176,157.5,175.9,157.4z"/>
	<g>
		<path class="st2" d="M182.6,201.5l-30.7-20.7l20.6-13.8c-0.2-0.7-0.3-1.4-0.4-2l-21.9,14.7l-22.4-15c-0.1,0.7-0.3,1.3-0.4,2
			l21.1,14.1l-32.2,21.6c-0.4,1-0.7,2.1-1.1,3.1l35.1-23.5l33.5,22.6C183.3,203.5,182.9,202.5,182.6,201.5z"/>
	</g>
	<g>
		<path class="st3" d="M87.5,130.5c5.7,7.9,34.8,7.5,54.1,7.3c3.1,0,6-0.1,8.5-0.1c2.6,0,5.5,0,8.5,0.1c19.3,0.2,48.4,0.6,54.1-7.3"
			/>
	</g>
</g>
</svg>
