<?xml version="1.0" encoding="utf-8"?>
<!-- Generator: Adobe Illustrator 21.0.0, SVG Export Plug-In . SVG Version: 6.00 Build 0)  -->
<svg version="1.1" id="Livello_1" xmlns="http://www.w3.org/2000/svg" xmlns:xlink="http://www.w3.org/1999/xlink" x="0px" y="0px"
	 viewBox="0 0 300 300" style="enable-background:new 0 0 300 300;" xml:space="preserve">
<style type="text/css">
	.st0{fill:#F78181;stroke:#000000;stroke-width:0.75;stroke-miterlimit:10;}
	.st1{fill:#FFFFFF;stroke:#000000;stroke-width:0.75;stroke-miterlimit:10;}
	.st2{fill:none;stroke:#000000;stroke-width:0.75;stroke-miterlimit:10;}
</style>
<title>Senza titolo-1</title>
<g>
	<g>
		<path class="st0" d="M129.7,152.3c-0.9-0.8-1.9-1.8-2.8-2.6c-4.5-0.4-8.9-1.6-13.1-3.4c-10.4-4.4-17.1-15.2-18.3-39.6
			c-0.7-15-4.7-30.8-10.2-44.2c3,4.4,6,8.2,9.1,10.6c7.4,5.8,34.4,7.7,54.1,9.1c8.7,0.6,16.3,1.2,19.8,1.9l3.8,0.7
			c8.4,1.5,11.9,2.1,17.8,18.4c4.9,13.8,10,27.9,18,37.9c-8.9,0.4-15.3,1-20.6,1.6c-0.4,0.9-2.1,3.5-2.8,3.5l-7.3,1.5
			c0,0-2.1-2.1-3.2-3c-3.5,0.6-7,1.3-11.2,2c-5.9,1-13.4,2.7-21.1,3c-0.8,0.9-1.6,1.8-2.5,2.6L129.7,152.3"/>
		<path class="st1" d="M77.7,38.9c6.3,9.6,16.7,30.8,28.4,34.9c7.8,2.7,62,5.9,70.5,8.3s11.3,6.5,15.1,15.5
			c4.4,12.1,13.3,36.7,19.9,40.3s8.3,1.6,12.6,5.1s4.9,9-1.1,6.5c-3.1-1.3-6.1-2.8-9-4.6c-10.6-9.5-16.5-26.1-22.3-42.2
			c-6.2-17.3-10.6-18.1-19.2-19.6l-3.8-0.7c-3.6-0.7-11.2-1.3-20-1.9c-19.4-1.4-46-3.3-53-8.7C91.1,68,86.3,60.4,81.6,53l-2-3.1
			c-1.7-3.1-3.5-6.2-5.5-9.1C69.5,34.1,75.4,35.4,77.7,38.9"/>
		<path class="st2" d="M132,153c-1-0.1-2,0.6-2.2,1.6c-0.2,0.7-1.1,3.3-1.1,3.3l4.2,1.1c0.2-1.3,0.5-2.7,1-3.9
			c0.5-1,1.6-1.7,2.7-1.7L132,153z M179,149.2c-1.3,0.2-1.3,2-1,2.8s2,6.9,2,6.9l-3.9,1.2c0,0-1.4-6-1.7-7.7
			c-0.3-1.3-0.1-3.2,1.9-3.6c1.5-0.3,7.8-1.4,7.8-1.4l0.2,0.7C184.2,148.1,180.2,149,179,149.2L179,149.2z M128.6,159.2l3.7,1.1
			c0.4,0.1,0.6,0.5,0.6,0.9c-7.2,34.7-31.6,91.1-33.9,96.9c-0.1,0.3-0.4,0.5-0.7,0.5h-3.7c-0.4,0-0.8-0.3-0.8-0.8c0-0.1,0-0.2,0-0.2
			c7.6-35.6,23.2-73.4,34-98C127.9,159.2,128.3,159.1,128.6,159.2L128.6,159.2z M180.1,160l-3.2,1c-0.5,0.2-0.9,0.7-0.7,1.2
			c7.3,34.7,32.5,90.2,34.9,95.9c0.1,0.3,0.4,0.5,0.7,0.5h3.7c0.4,0,0.8-0.3,0.8-0.8c0-0.1,0-0.1,0-0.2c-7.5-35.3-31.8-89.5-34.9-97
			C181.2,160.1,180.6,159.8,180.1,160L180.1,160z M212,263.3c-0.8,0-1.5-0.6-1.5-1.5c0,0,0,0,0,0c0,0,0,0,0-0.1
			c0-0.8,0.7-1.5,1.6-1.5h5c0.8,0,1.5,0.6,1.5,1.5c0,0,0,0,0,0c0,0,0,0,0,0c0,0.8-0.7,1.5-1.6,1.5L212,263.3z M98.1,263.3
			c0.8,0,1.5-0.6,1.5-1.5c0,0,0,0,0,0c0,0,0,0,0-0.1c0-0.9-0.8-1.5-1.6-1.5c0,0,0,0,0,0h-5c-0.8,0-1.5,0.6-1.5,1.5c0,0,0,0,0,0
			c0,0,0,0,0,0c0,0.8,0.7,1.5,1.6,1.5L98.1,263.3z"/>
		<path class="st1" d="M183.5,148.8l0.1,0.6c-0.4,0.4-1,0.7-1.5,0.7c-0.5,0.1-1.1,0-1.6-0.2l-0.1-0.6L183.5,148.8z"/>
		<path class="st2" d="M123.5,198.6l28.3-19.2L133,167.1c0.2-0.7,0.3-1.3,0.5-2l20,13.1l21.5-14.5c0.1,0.7,0.3,1.3,0.4,2l-20.1,13.7
			l30.4,19.9l1.1,3l-33.2-21.8l-31.1,21.1L123.5,198.6z"/>
	</g>
</g>
</svg>
