<?xml version="1.0" encoding="utf-8"?>
<!-- Generator: Adobe Illustrator 21.0.0, SVG Export Plug-In . SVG Version: 6.00 Build 0)  -->
<svg version="1.1" id="Livello_1" xmlns="http://www.w3.org/2000/svg" xmlns:xlink="http://www.w3.org/1999/xlink" x="0px" y="0px"
	 viewBox="0 0 300 300" style="enable-background:new 0 0 300 300;" xml:space="preserve">
<style type="text/css">
	.st0{fill:none;stroke:#000000;stroke-width:0.75;stroke-miterlimit:10;}
	.st1{fill:#FFFFFF;stroke:#000000;stroke-width:0.75;stroke-miterlimit:10;}
	.st2{fill:#F78181;stroke:#000000;stroke-width:0.75;stroke-miterlimit:10;}
</style>
<title>icon-2</title>
<g>
	<g>
		<path class="st0" d="M129.6,152.6c-0.9-0.8-2-1.8-2.8-2.6c-4.5-0.4-9-1.6-13.1-3.4c-10.5-4.4-17.1-15.2-18.4-39.8
			C94.5,91.8,90.5,75.9,85,62.4c3,4.4,6.1,8.3,9.2,10.7c7.5,5.8,34.6,7.7,54.4,9.1c8.8,0.6,16.3,1.2,19.9,1.9l3.8,0.7
			c8.5,1.5,12,2.1,17.9,18.5c5,13.9,10,28.1,18.1,38.1c-8.9,0.4-15.4,1-20.7,1.6c-0.4,0.9-2.1,3.6-2.8,3.6l-7.4,1.5
			c0,0-2.1-2.1-3.2-3c-3.5,0.6-7,1.3-11.3,2c-6,1-13.4,2.7-21.2,3c-0.8,0.9-1.6,1.8-2.5,2.7L129.6,152.6z"/>
		<path class="st1" d="M77.4,38.7c6.3,9.6,16.8,30.9,28.6,35c7.8,2.8,62.3,5.9,70.9,8.4s11.3,6.6,15.2,15.6
			c4.4,12.2,13.3,36.9,19.9,40.5s8.3,1.7,12.6,5.2s5,9-1.1,6.5c-3.1-1.3-6.1-2.8-9-4.7c-10.6-9.5-16.6-26.2-22.4-42.4
			c-6.2-17.4-10.6-18.2-19.3-19.7l-3.8-0.7c-3.6-0.7-11.2-1.3-20.1-1.9c-19.5-1.4-46.2-3.3-53.2-8.7C90.9,68,86,60.3,81.3,52.9
			c-0.7-1-1.3-2.1-2-3.1c-1.7-3.2-3.5-6.2-5.6-9.2C69.1,33.9,75.1,35.2,77.4,38.7"/>
		<path class="st2" d="M131.9,153.3c-1-0.1-2,0.6-2.2,1.6c-0.2,0.7-1.1,3.3-1.1,3.3l4.2,1.1c0.2-1.4,0.5-2.7,1-4
			c0.5-1,1.6-1.7,2.7-1.7L131.9,153.3z M179.1,149.5c-1.3,0.2-1.3,2-1,2.8s2,6.9,2,6.9l-4,1.2l-1.7-7.7c-0.3-1.3-0.1-3.2,1.9-3.6
			c1.5-0.3,7.8-1.4,7.8-1.4l0.2,0.7C184.3,148.4,180.3,149.3,179.1,149.5 M128.5,159.6l3.7,1.1c0.4,0.1,0.6,0.5,0.6,0.9
			c-7.2,34.9-31.8,91.5-34.1,97.4c-0.1,0.3-0.4,0.5-0.7,0.5h-3.7c-0.4,0-0.8-0.3-0.8-0.8c0-0.1,0-0.1,0-0.2
			c7.6-35.8,23.3-73.8,34.2-98.5C127.7,159.6,128.2,159.4,128.5,159.6 M180.3,160.3l-3.2,1c-0.5,0.2-0.9,0.7-0.8,1.2
			c7.3,34.9,32.7,90.6,35.1,96.4c0.1,0.3,0.4,0.5,0.7,0.5h3.8c0.4,0,0.8-0.3,0.8-0.8c0-0.1,0-0.1,0-0.2c-7.5-35.4-32-89.9-35.1-97.5
			C181.4,160.4,180.8,160.1,180.3,160.3 M212.3,264.1c-0.8,0-1.5-0.7-1.5-1.5c0,0,0,0,0,0c0,0,0,0,0,0c0-0.9,0.7-1.5,1.6-1.5h5.1
			c0.8,0,1.5,0.6,1.5,1.5c0,0,0,0,0,0c0,0,0,0,0,0c0,0.8-0.7,1.5-1.6,1.5H212.3z M97.9,264.1c0.8,0,1.5-0.6,1.5-1.5c0,0,0,0,0,0
			c0,0,0,0,0-0.1c0-0.8-0.7-1.5-1.6-1.5h-5.1c-0.8,0-1.5,0.6-1.5,1.5c0,0,0,0,0,0c0,0,0,0,0,0.1c0,0.9,0.7,1.5,1.6,1.5H97.9z"/>
		<path class="st1" d="M183.7,149.1l0.1,0.6c-0.4,0.4-1,0.7-1.5,0.7c-0.5,0.1-1.1,0-1.6-0.2l-0.1-0.6L183.7,149.1z"/>
		<path class="st1" d="M123.4,199.2l28.4-19.2l-18.9-12.4c0.2-0.7,0.3-1.3,0.5-2l20.1,13.2l21.6-14.6l0.4,2l-20.3,13.8l30.6,20
			c0.4,1,0.7,2,1.1,3L153.6,181l-31.2,21.2C122.7,201.2,123.1,200.2,123.4,199.2"/>
	</g>
</g>
</svg>
