<?xml version="1.0" encoding="utf-8"?>
<!-- Generator: Adobe Illustrator 21.0.0, SVG Export Plug-In . SVG Version: 6.00 Build 0)  -->
<svg version="1.1" id="Livello_1" xmlns="http://www.w3.org/2000/svg" xmlns:xlink="http://www.w3.org/1999/xlink" x="0px" y="0px"
	 viewBox="0 0 300 300" style="enable-background:new 0 0 300 300;" xml:space="preserve">
<style type="text/css">
	.st0{fill:#F78181;}
	.st1{fill:none;stroke:#000000;stroke-width:0.75;stroke-miterlimit:10;}
</style>
<path class="st0" d="M207.9,136.5H92.5c-3.5,0-6.4-2.9-6.4-6.4v0c0-3.5,2.9-6.4,6.4-6.4l57.7,6.4l57.7-6.4c3.5,0,6.4,2.9,6.4,6.4v0
	C214.3,133.6,211.4,136.5,207.9,136.5z"/>
<title>icon-2</title>
<path class="st1" d="M149.6,36.2c0.1,0,0.2,0,0.4,0c0.1,0,0.2,0,0.4,0H149.6z M230.8,74.1C209,70.2,198.9,61,192.4,54.5
	c-6.5-6.5-18-18.3-42.4-18.4c-24.4,0.1-35.9,11.9-42.4,18.4S91,70.2,69.2,74.1c-5.4,1-7.2,1.9-2.6,4.9s3.3,6.3,3.5,7.9
	c0.1,1.6,3,32.4,5,40.1c2.2,8.6,7,18.1,24.4,19.5s15.9,1.2,27,1.6c2.3,2.6,3.1,3.4,6.4,3.6c3.3,0.1,4.3,0,7.6-2.9c5.3,0.1,9,0,9,0
	h0.9c0,0,3.7,0.1,9,0c3.2,2.9,4.3,3.1,7.6,2.9s4.1-1,6.4-3.6c11.1-0.4,9.6-0.1,27-1.5s22.2-11.2,24.6-19.5
	c2.2-7.7,4.7-38.6,4.9-40.2c0.1-1.6-1.1-4.9,3.5-7.9C237.9,76.1,236.2,75.1,230.8,74.1z M90.5,264.2c0.8,0,1.4-0.7,1.4-1.5l0,0
	c0-0.8-0.7-1.5-1.5-1.5h-4.8c-0.8,0-1.4,0.7-1.4,1.5l0,0c0,0.8,0.7,1.5,1.5,1.5H90.5z M122.3,158.9l4.9,1.5
	c-7.1,36.9-35.9,99-35.9,99h-5C93.7,221.1,122.3,158.9,122.3,158.9z M206.8,264.2c-0.8,0-1.4-0.7-1.4-1.5l0,0c0-0.8,0.7-1.5,1.5-1.5
	h4.8c0.8,0,1.4,0.7,1.4,1.5l0,0c0,0.8-0.7,1.5-1.5,1.5H206.8z M177.4,158.9l-4.9,1.5c7.1,36.9,33.5,99,33.5,99h5
	C203.6,221.1,177.4,158.9,177.4,158.9z M164.1,153.6v0.6c0,0,0.7,0.5,1.7,0.4c0.9-0.1,1.6-0.5,1.6-0.5v-0.6L164.1,153.6z
	 M135.2,153.6v0.6c0,0-0.7,0.5-1.7,0.4c-0.9-0.1-1.6-0.5-1.6-0.5v-0.6L135.2,153.6z M135.8,153v-0.8c0,0-4.1,0-6.5-0.1l-3.1-3.3
	l-2.9,8.6l3.7,0.9L135.8,153z M175.9,157.4l-1.9-8.6l-3.2,3.4c-2.2,0-7.3,0.1-7.3,0.1v0.8c0,0,4.2,0.2,5.4,0.1
	c1.3,0,3.5,5.4,3.5,5.4l3.7-0.9C176,157.6,176,157.5,175.9,157.4z M182.6,201.5l-30.7-20.7l20.6-13.8c-0.2-0.7-0.3-1.4-0.4-2
	l-21.9,14.7l-22.4-15c-0.1,0.7-0.3,1.3-0.4,2l21.1,14.1l-32.2,21.6c-0.4,1-0.7,2.1-1.1,3.1l35.1-23.5l33.5,22.6
	C183.3,203.5,182.9,202.5,182.6,201.5z M214.3,130.1L214.3,130.1c0,3.5-2.9,6.4-6.4,6.4H92.6c-3.5,0-6.4-2.9-6.4-6.4l0,0
	c0-3.5,2.9-6.4,6.4-6.4l57.6,6.4l57.7-6.4C211.4,123.7,214.3,126.6,214.3,130.1z"/>
</svg>
