<?xml version="1.0" encoding="utf-8"?>
<!-- Generator: Adobe Illustrator 21.0.0, SVG Export Plug-In . SVG Version: 6.00 Build 0)  -->
<svg version="1.1" id="Livello_1" xmlns="http://www.w3.org/2000/svg" xmlns:xlink="http://www.w3.org/1999/xlink" x="0px" y="0px"
	 viewBox="0 0 300 300" style="enable-background:new 0 0 300 300;" xml:space="preserve">
<style type="text/css">
	.st0{fill:#9AC43B;}
	.st1{fill:#F4983A;}
	.st2{fill:#FFCC07;}
	.st3{fill:#009967;}
	.st4{fill:#CD3434;}
	.st5{fill:#C30E7D;}
	.st6{fill:#0099CD;}
	.st7{fill:#0F5994;}
	.st8{fill:#FFFFFF;stroke:#000000;stroke-width:0.75;stroke-miterlimit:10;}
</style>
<title>icon-3</title>
<polygon points="180.7,124.1 180.8,124.1 195.7,109.1 "/>
<path class="st0" d="M151.2,64.7l44.5,44.5V46.3C178.2,46.3,162.5,53.3,151.2,64.7z"/>
<path class="st1" d="M258.5,109.1c0-17.3-7-33-18.4-44.5l-44.5,44.5l0,0H258.5"/>
<path class="st2" d="M195.7,46.3v62.9l44.5-44.5c-9.8-9.8-22.9-16.4-37.4-18C200.4,46.4,198,46.3,195.7,46.3L195.7,46.3z"/>
<path class="st3" d="M151.2,64.7c-11.3,11.3-18.4,27-18.4,44.5h62.9L151.2,64.7L151.2,64.7z"/>
<path class="st4" d="M258.5,109.1h-62.9v0l44.5,44.5C251.5,142.3,258.5,126.6,258.5,109.1"/>
<path class="st5" d="M195.7,109.1L195.7,109.1V172c17.3,0,33-7,44.5-18.4L195.7,109.1z"/>
<path class="st6" d="M132.8,109.1c0,2.3,0.1,4.6,0.3,6.8c1.6,14.7,8.2,27.7,18,37.6l29.5-29.5l14.9-14.9H132.8L132.8,109.1z"/>
<path class="st7" d="M195.7,109.1l-15,14.9l-29.5,29.5c11.3,11.3,27.2,18.4,44.5,18.4l0,0L195.7,109.1L195.7,109.1z"/>
<polygon points="180.7,124.1 180.8,124.1 195.7,109.1 "/>
<path class="st0" d="M151.2,64.7l44.5,44.5V46.3C178.2,46.3,162.5,53.3,151.2,64.7z"/>
<path class="st1" d="M258.5,109.1c0-17.3-7-33-18.4-44.5l-44.5,44.5l0,0H258.5"/>
<path class="st2" d="M195.7,46.3v62.9l44.5-44.5c-9.8-9.8-22.9-16.4-37.4-18C200.4,46.4,198,46.3,195.7,46.3L195.7,46.3z"/>
<path class="st3" d="M151.2,64.7c-11.3,11.3-18.4,27-18.4,44.5h62.9L151.2,64.7L151.2,64.7z"/>
<path class="st4" d="M258.5,109.1h-62.9v0l44.5,44.5C251.5,142.3,258.5,126.6,258.5,109.1"/>
<path class="st5" d="M195.7,109.1L195.7,109.1V172c17.3,0,33-7,44.5-18.4L195.7,109.1z"/>
<path class="st6" d="M132.8,109.1c0,2.3,0.1,4.6,0.3,6.8c1.6,14.7,8.2,27.7,18,37.6l29.5-29.5l14.9-14.9H132.8L132.8,109.1z"/>
<path class="st7" d="M195.7,109.1l-15,14.9l-29.5,29.5c11.3,11.3,27.2,18.4,44.5,18.4l0,0L195.7,109.1L195.7,109.1z"/>
<g>
	<path class="st8" d="M129.6,152.6c-0.9-0.8-1.9-1.8-2.8-2.6c-4.5-0.4-8.9-1.6-13.1-3.4c-10.5-4.4-17.1-15.2-18.3-39.8
		C94.6,91.8,90.6,76,85.2,62.6c3,4.4,6.1,8.3,9.2,10.7c7.5,5.8,34.5,7.7,54.3,9.1c8.8,0.6,16.3,1.2,19.8,1.9l3.8,0.7
		c8.5,1.5,12,2.1,17.8,18.4c4.9,13.8,10,28,18,38c-8.9,0.4-15.4,1-20.6,1.6c-0.4,0.9-2.1,3.6-2.8,3.6l-7.4,1.4c0,0-2.1-2.1-3.2-3
		c-3.5,0.6-7,1.3-11.3,2c-6,1-13.4,2.7-21.2,3c-0.8,0.9-1.6,1.8-2.5,2.6l-9.6-0.2"/>
	<path class="st8" d="M77.5,38.9c6.3,9.6,16.8,30.8,28.5,35c7.8,2.7,62.2,5.9,70.7,8.3s11.3,6.5,15.1,15.6
		c4.4,12.2,13.3,36.8,19.9,40.4s8.3,1.7,12.6,5.2s4.9,9-1.1,6.5c-3.1-1.3-6.1-2.8-9-4.6c-10.6-9.5-16.6-26.2-22.4-42.4
		c-6.2-17.4-10.6-18.2-19.3-19.7l-3.8-0.7c-3.6-0.7-11.2-1.3-20-1.9c-19.5-1.4-46.1-3.3-53.1-8.7c-4.8-3.7-9.6-11.4-14.3-18.9
		c-0.7-1-1.3-2.1-2-3.1c-1.7-3.2-3.5-6.2-5.5-9.1C69.3,34.1,75.2,35.3,77.5,38.9"/>
	<path class="st8" d="M131.9,153.3c-1-0.1-2,0.6-2.2,1.6c-0.2,0.7-1.1,3.3-1.1,3.3l4.2,1.1c0.2-1.4,0.5-2.7,1-4
		c0.5-1,1.6-1.7,2.7-1.7L131.9,153.3z M179.1,149.5c-1.3,0.2-1.3,2-1,2.8s2,6.9,2,6.9l-3.9,1.2c0,0-1.4-6.1-1.7-7.7
		c-0.3-1.3-0.1-3.2,1.9-3.6c1.5-0.3,7.8-1.4,7.8-1.4l0.2,0.7C184.3,148.4,180.2,149.3,179.1,149.5 M128.6,159.5l3.7,1.1
		c0.4,0.1,0.6,0.5,0.6,0.9c-7.2,34.8-31.7,91.4-34,97.1c-0.1,0.3-0.4,0.5-0.7,0.5h-3.8c-0.4,0-0.8-0.3-0.8-0.8c0-0.1,0-0.1,0-0.2
		c7.6-35.7,23.2-73.6,34.1-98.3C127.8,159.6,128.2,159.4,128.6,159.5 M180.2,160.2l-3.2,1c-0.5,0.2-0.9,0.7-0.8,1.2
		c7.3,34.8,32.6,90.5,35,96.2c0.1,0.3,0.4,0.5,0.7,0.5h3.8c0.4,0,0.8-0.3,0.8-0.8c0-0.1,0-0.1,0-0.2c-7.5-35.4-31.9-89.8-35-97.3
		C181.3,160.4,180.8,160.1,180.2,160.2 M212.3,263.9c-0.8,0-1.5-0.6-1.5-1.5c0,0,0,0,0,0c0,0,0,0,0-0.1c0-0.9,0.7-1.5,1.6-1.5h5
		c0.8,0,1.5,0.6,1.5,1.4c0,0,0,0,0,0c0,0,0,0,0,0.1c0,0.8-0.7,1.5-1.6,1.5L212.3,263.9z M98,263.9c0.8,0,1.5-0.6,1.5-1.5
		c0,0,0,0,0,0c0,0,0,0,0-0.1c0-0.8-0.7-1.5-1.5-1.5h-5.1c-0.8,0-1.5,0.6-1.5,1.5c0,0,0,0,0,0c0,0,0,0,0,0.1c0,0.8,0.7,1.5,1.6,1.5
		L98,263.9z"/>
	<path class="st8" d="M183.6,149.1l0.1,0.6c-0.4,0.4-1,0.7-1.5,0.7c-0.5,0.1-1.1,0-1.6-0.2l-0.1-0.6L183.6,149.1z"/>
	<path class="st8" d="M123.5,199.1l28.3-19.2L133,167.6c0.2-0.7,0.3-1.3,0.5-2l20.1,13.2l21.5-14.6c0.1,0.7,0.3,1.3,0.4,2
		l-20.3,13.7l30.5,20l1.1,3L153.6,181l-31.2,21.1C122.8,201.1,123.1,200.1,123.5,199.1"/>
</g>
</svg>
