<?xml version="1.0" encoding="utf-8"?>
<!-- Generator: Adobe Illustrator 21.0.0, SVG Export Plug-In . SVG Version: 6.00 Build 0)  -->
<svg version="1.1" id="Livello_1" xmlns="http://www.w3.org/2000/svg" xmlns:xlink="http://www.w3.org/1999/xlink" x="0px" y="0px"
	 viewBox="0 0 300 300" style="enable-background:new 0 0 300 300;" xml:space="preserve">
<style type="text/css">
	.st0{fill:#FFFFFF;}
	.st1{fill:#FFFFFF;stroke:#000000;stroke-width:0.75;stroke-miterlimit:10;}
	.st2{fill:#F78181;stroke:#000000;stroke-width:0.75;stroke-miterlimit:10;}
</style>
<title>icon-2</title>
<g>
	<g>
		<path class="st0" d="M151.6-116c0.2,0,0.4,0,0.6,0c0.2,0,0.4,0,0.6,0H151.6z"/>
	</g>
	<path class="st1" d="M53,264.2c1.3,0,2.4-1.1,2.4-2.6l0,0c0-1.4-1.1-2.5-2.5-2.5h-8c-1.3,0-2.4,1.1-2.4,2.5l0,0
		c0,1.4,1.1,2.6,2.5,2.6H53z"/>
	<path class="st2" d="M106,88.6l8.1,2.5c-11.9,61.6-59.8,165.1-59.8,165.1h-8.4C58.4,192.4,106,88.6,106,88.6z"/>
	<path class="st1" d="M247,264.2c-1.3,0-2.4-1.1-2.4-2.6l0,0c0-1.4,1.1-2.5,2.5-2.5h8c1.3,0,2.4,1.1,2.4,2.5l0,0
		c0,1.4-1.1,2.6-2.5,2.6H247z"/>
	<path class="st2" d="M198,88.6l-8.1,2.5c11.9,61.6,55.9,165.1,55.9,165.1h8.4C241.6,192.4,198,88.6,198,88.6z"/>
	<path class="st1" d="M175.8,79.9V81c0,0,1.2,0.9,2.8,0.7c1.6-0.1,2.6-0.8,2.6-0.8l0.1-1L175.8,79.9z"/>
	<path class="st1" d="M127.5,79.9V81c0,0-1.2,0.9-2.8,0.7c-1.6-0.1-2.6-0.8-2.6-0.8l-0.1-1L127.5,79.9z"/>
	<path class="st1" d="M128.5,77.6c0,0-6.9-0.1-10.9-0.1l-5.1-5.5l-4.8,14.4l6.1,1.6c0,0,3.6-9,5.8-8.9c2,0,9-0.2,9-0.2L128.5,77.6z"
		/>
	<path class="st1" d="M195.5,86.1l-3.2-14.3l-5.4,5.7c-3.6,0-12.2,0.1-12.2,0.1l-0.1,1.3c0,0,7,0.3,9,0.2c2.2,0,5.8,8.9,5.8,8.9
		l6.1-1.6C195.6,86.5,195.5,86.3,195.5,86.1z"/>
	<g>
		<path class="st1" d="M206.6,159.7l-51.3-34.5l34.4-23c-0.3-1.1-0.5-2.3-0.7-3.4l-36.5,24.5l-37.3-25c-0.2,1.1-0.5,2.2-0.7,3.4
			l35.2,23.6l-53.7,36c-0.6,1.7-1.2,3.4-1.9,5.1l58.5-39.2l55.8,37.6C207.7,163.1,207.1,161.4,206.6,159.7z"/>
	</g>
</g>
</svg>
