<?xml version="1.0" encoding="utf-8"?>
<!-- Generator: Adobe Illustrator 21.0.0, SVG Export Plug-In . SVG Version: 6.00 Build 0)  -->
<svg version="1.1" id="Livello_1" xmlns="http://www.w3.org/2000/svg" xmlns:xlink="http://www.w3.org/1999/xlink" x="0px" y="0px"
	 viewBox="0 0 300 300" style="enable-background:new 0 0 300 300;" xml:space="preserve">
<style type="text/css">
	.st0{fill:none;stroke:#000000;stroke-linecap:round;stroke-linejoin:round;}
	.st1{fill:none;stroke:#FFFFFF;stroke-linecap:round;stroke-linejoin:round;}
</style>
<title>icon-3</title>
<path class="st0" d="M18.6,105.7c-0.6,0.6-1.2,1.6-2,3.4c-1.1,2.7-2.5,7.3-3.6,10.5c-1.1,3.3-1.8,5.2-2,6.4
	c-0.2,1.2,0.1,1.7,0.3,2.3c5.9,3,9.2,4.6,12.5,5.9c3.3,1.3,6.6,2.3,9.3,3.1s4.8,1.3,6.5,1.7s2.8,0.5,4.2,0.2c1.3-0.3,2.9-1.1,4.3-2
	c1.4-0.9,2.7-2,4.4-3.5s3.7-3.5,4.5-4.6c0.8-1.1,0.3-1.4-0.8-1.8s-2.9-1-4.6-2c-1.8-0.9-3.5-2.2-5-3.3c-1.5-1.1-2.9-2.1-3.9-3.2
	s-1.9-2.2-2.6-3.5s-1.3-2.7-2.1-3.9c-0.8-1.3-1.9-2.4-4.4-3.4C31.4,107,28.1,106.1,18.6,105.7z"/>
<path class="st0" d="M152.7,196.9c7,0.7,13.1,1.4,20.5,1.7c8.4,0.3,18.5,0.2,26.6,0.1c8.1-0.1,14.2-0.2,22-0.8
	c7.9-0.6,17.6-1.8,25.7-3.1c8.1-1.3,14.7-2.6,23-4.4c8.2-1.8,18.1-4.2,25.6-9.6c-0.1-0.6,0.1-1.5-0.1-3.1s-0.8-3.9-2.4-6.6
	c-1.6-2.7-4.2-5.8-7.2-8.1s-6.3-3.8-10.1-4.8c-2.7,2.9-3.9,3.8-6.1,4.7s-5.3,1.7-8.9,2.4s-7.6,1.3-12,1.9c-4.4,0.7-9.1,1.5-14.5,2.2
	c-5.5,0.7-11.7,1.2-17.7,1.3s-11.7-0.1-17.7-0.1s-12.1,0.2-16.8,1c-4.6,0.8-7.7,2.2-10.9,4.1c-3.2,1.9-6.4,4.3-9.5,7.7
	C159.1,186.7,156.1,191,152.7,196.9z"/>
<path class="st0" d="M11,185.4c0.1,1.6-0.2,3.2-0.3,5.5s0,5.1,0.4,7.4c0.5,2.3,1.3,4,5.5,5.3s11.6,2.3,16.2,2.7
	c4.6,0.5,6.4,0.5,18.1,0.4s33.4-0.1,59,0.2c25.7,0.3,55.4,1.1,76.3,1.1s33.1-0.9,48.4-3.2s33.7-6.2,44.5-9.1
	c10.8-2.9,13.9-4.9,15.6-7s1.9-4.3,1.9-5.6c-0.1-1.3-0.5-1.7-0.7-2.3c-7.5,5.4-17.4,7.7-25.6,9.6c-8.2,1.8-14.8,3.2-23,4.4
	c-8.1,1.3-17.8,2.5-25.7,3.1s-13.9,0.7-22,0.8s-18.2,0.2-26.6-0.1c-8.4-0.3-14.9-1.1-23.2-2c-8.2-0.9-18-1.8-27.6-2.2
	s-18.8-0.4-31.2-0.6c-12.4-0.2-28-0.6-42.8-1.7C33.6,191.1,19.4,189.3,11,185.4z"/>
<path class="st0" d="M276.3,158.2c-3.8-1-8.1-1.6-12.6-2.2c-4.6-0.6-9.4-1.2-17.4-3.1c-8-1.9-19.2-5-32.3-10.7s-28-14-37.5-19.4
	s-13.6-7.8-21.4-11.7c-7.8-3.9-19.2-9.1-27.5-12.7S114,93,111.1,92.3c-3-0.7-3.7-0.3-4.4,0.6c-0.7,0.9-1.4,2.2-3.2,5.3
	c-1.8,3.2-4.6,8.1-6.4,11.5c-1.3,2.5-2.1,4.1-3,5.2c0.4,2.7-0.1,3.8-0.7,4.7c-0.7,0.9-1.5,1.6-3,2.6c-1.6,1.1-4,2.6-6.6,3.8
	c-2.6,1.2-5.5,2-9.5,2.7s-8.8,1.2-16.9-0.3c-0.1,0.2-0.2,0.3-0.3,0.5c-0.8,1.1-2.8,3.1-4.5,4.6s-3,2.6-4.4,3.5s-2.9,1.7-4.3,2
	c-1.3,0.3-2.5,0.1-4.2-0.2c-1.7-0.4-3.8-0.9-6.5-1.7s-6-1.8-9.3-3.1s-6.7-2.9-12.5-5.9c0.3,0.6,0.5,1.3-0.1,4.3s-1.9,8.2-2.6,13.7
	S7.9,157.3,8.2,163c0.3,5.8,1,11.6,1.6,15.3s1.2,5.2,1.3,6.8c8.4,3.9,22.5,5.7,37.4,6.7c14.9,1.1,30.4,1.5,42.8,1.7
	s21.7,0.1,31.2,0.6s19.4,1.3,27.6,2.2c0.9,0.1,1.8,0.2,2.7,0.3c3.4-5.9,6.4-10.1,9.5-13.5c3.1-3.3,6.4-5.8,9.5-7.7
	c3.2-1.9,6.3-3.3,10.9-4.1c4.6-0.8,10.8-1,16.8-1s11.7,0.2,17.7,0.1c6-0.1,12.2-0.7,17.7-1.3c5.5-0.7,10.2-1.5,14.5-2.2
	c4.4-0.7,8.4-1.3,12-1.9c3.6-0.7,6.7-1.5,8.9-2.4C272.4,162,273.6,161.1,276.3,158.2z"/>
<line class="st0" x1="24.2" y1="205.2" x2="34.9" y2="190.9"/>
<line class="st0" x1="15.5" y1="203.2" x2="25.5" y2="189.7"/>
<line class="st1" x1="10.7" y1="194.4" x2="16.5" y2="187.4"/>
<line class="st0" x1="33.3" y1="205.6" x2="42.3" y2="192.7"/>
<line class="st0" x1="41.5" y1="206.6" x2="51.3" y2="192.7"/>
<line class="st0" x1="51.3" y1="206.6" x2="61.3" y2="192.9"/>
<line class="st0" x1="60.4" y1="206.6" x2="70.7" y2="193.3"/>
<line class="st0" x1="69.4" y1="206.6" x2="79" y2="193.6"/>
<line class="st0" x1="79" y1="206.6" x2="88.3" y2="194.4"/>
<line class="st0" x1="89.1" y1="206.6" x2="98.6" y2="193.9"/>
<line class="st0" x1="99.5" y1="206.6" x2="108.7" y2="194.4"/>
<line class="st0" x1="109.4" y1="206.6" x2="118.6" y2="194.4"/>
<line class="st0" x1="119.6" y1="206.6" x2="128.6" y2="194.7"/>
<line class="st0" x1="129.6" y1="206.6" x2="137.5" y2="195.4"/>
<line class="st0" x1="138.2" y1="207.5" x2="146.1" y2="196.3"/>
<line class="st0" x1="147.4" y1="207.5" x2="154.7" y2="197.1"/>
<line class="st0" x1="156.3" y1="207.8" x2="163.2" y2="197.8"/>
<line class="st0" x1="165.5" y1="207.8" x2="171.2" y2="198.8"/>
<line class="st0" x1="175.1" y1="207.8" x2="180.8" y2="198.8"/>
<line class="st0" x1="183.5" y1="207.8" x2="189.2" y2="198.8"/>
<line class="st0" x1="191.7" y1="207.8" x2="197.4" y2="198.8"/>
<line class="st0" x1="200.7" y1="207.8" x2="206.4" y2="198.8"/>
<line class="st0" x1="208.9" y1="207.5" x2="214.1" y2="198.8"/>
<line class="st0" x1="217.3" y1="206.8" x2="223" y2="197.8"/>
<line class="st0" x1="226.4" y1="206.1" x2="231.4" y2="197.5"/>
<line class="st0" x1="236.5" y1="204.4" x2="241.5" y2="195.9"/>
<line class="st0" x1="246.6" y1="203" x2="251.6" y2="194.4"/>
<line class="st0" x1="257.2" y1="200.1" x2="261.8" y2="192.4"/>
<line class="st0" x1="267.1" y1="197.8" x2="271.7" y2="190"/>
<line class="st0" x1="276.9" y1="195.4" x2="281.5" y2="187.7"/>
<line class="st0" x1="286.6" y1="192.4" x2="291.2" y2="184.6"/>
</svg>
